<svg width="99" height="104" viewBox="0 0 99 104" fill="none" xmlns="http://www.w3.org/2000/svg">
<path fill-rule="evenodd" clip-rule="evenodd" d="M2.5 5C1.11929 5 0 3.88071 0 2.5C0 1.11929 1.11929 0 2.5 0C3.88071 0 5 1.11929 5 2.5C5 3.88071 3.88071 5 2.5 5ZM19.5 5C18.1193 5 17 3.88071 17 2.5C17 1.11929 18.1193 0 19.5 0C20.8807 0 22 1.11929 22 2.5C22 3.88071 20.8807 5 19.5 5ZM36.5 5C35.1193 5 34 3.88071 34 2.5C34 1.11929 35.1193 0 36.5 0C37.8807 0 39 1.11929 39 2.5C39 3.88071 37.8807 5 36.5 5ZM53.5 5C52.1193 5 51 3.88071 51 2.5C51 1.11929 52.1193 0 53.5 0C54.8807 0 56 1.11929 56 2.5C56 3.88071 54.8807 5 53.5 5ZM70.5 5C69.1193 5 68 3.88071 68 2.5C68 1.11929 69.1193 0 70.5 0C71.8807 0 73 1.11929 73 2.5C73 3.88071 71.8807 5 70.5 5ZM87.5 5C86.1193 5 85 3.88071 85 2.5C85 1.11929 86.1193 0 87.5 0C88.8807 0 90 1.11929 90 2.5C90 3.88071 88.8807 5 87.5 5ZM104.5 5C103.119 5 102 3.88071 102 2.5C102 1.11929 103.119 0 104.5 0C105.881 0 107 1.11929 107 2.5C107 3.88071 105.881 5 104.5 5ZM121.5 5C120.119 5 119 3.88071 119 2.5C119 1.11929 120.119 0 121.5 0C122.881 0 124 1.11929 124 2.5C124 3.88071 122.881 5 121.5 5ZM138.5 5C137.119 5 136 3.88071 136 2.5C136 1.11929 137.119 0 138.5 0C139.881 0 141 1.11929 141 2.5C141 3.88071 139.881 5 138.5 5ZM155.5 5C154.119 5 153 3.88071 153 2.5C153 1.11929 154.119 0 155.5 0C156.881 0 158 1.11929 158 2.5C158 3.88071 156.881 5 155.5 5ZM2.5 22C1.11929 22 0 20.8807 0 19.5C0 18.1193 1.11929 17 2.5 17C3.88071 17 5 18.1193 5 19.5C5 20.8807 3.88071 22 2.5 22ZM19.5 22C18.1193 22 17 20.8807 17 19.5C17 18.1193 18.1193 17 19.5 17C20.8807 17 22 18.1193 22 19.5C22 20.8807 20.8807 22 19.5 22ZM36.5 22C35.1193 22 34 20.8807 34 19.5C34 18.1193 35.1193 17 36.5 17C37.8807 17 39 18.1193 39 19.5C39 20.8807 37.8807 22 36.5 22ZM53.5 22C52.1193 22 51 20.8807 51 19.5C51 18.1193 52.1193 17 53.5 17C54.8807 17 56 18.1193 56 19.5C56 20.8807 54.8807 22 53.5 22ZM70.5 22C69.1193 22 68 20.8807 68 19.5C68 18.1193 69.1193 17 70.5 17C71.8807 17 73 18.1193 73 19.5C73 20.8807 71.8807 22 70.5 22ZM87.5 22C86.1193 22 85 20.8807 85 19.5C85 18.1193 86.1193 17 87.5 17C88.8807 17 90 18.1193 90 19.5C90 20.8807 88.8807 22 87.5 22ZM104.5 22C103.119 22 102 20.8807 102 19.5C102 18.1193 103.119 17 104.5 17C105.881 17 107 18.1193 107 19.5C107 20.8807 105.881 22 104.5 22ZM121.5 22C120.119 22 119 20.8807 119 19.5C119 18.1193 120.119 17 121.5 17C122.881 17 124 18.1193 124 19.5C124 20.8807 122.881 22 121.5 22ZM138.5 22C137.119 22 136 20.8807 136 19.5C136 18.1193 137.119 17 138.5 17C139.881 17 141 18.1193 141 19.5C141 20.8807 139.881 22 138.5 22ZM155.5 22C154.119 22 153 20.8807 153 19.5C153 18.1193 154.119 17 155.5 17C156.881 17 158 18.1193 158 19.5C158 20.8807 156.881 22 155.5 22ZM2.5 39C1.11929 39 0 37.8807 0 36.5C0 35.1193 1.11929 34 2.5 34C3.88071 34 5 35.1193 5 36.5C5 37.8807 3.88071 39 2.5 39ZM19.5 39C18.1193 39 17 37.8807 17 36.5C17 35.1193 18.1193 34 19.5 34C20.8807 34 22 35.1193 22 36.5C22 37.8807 20.8807 39 19.5 39ZM36.5 39C35.1193 39 34 37.8807 34 36.5C34 35.1193 35.1193 34 36.5 34C37.8807 34 39 35.1193 39 36.5C39 37.8807 37.8807 39 36.5 39ZM53.5 39C52.1193 39 51 37.8807 51 36.5C51 35.1193 52.1193 34 53.5 34C54.8807 34 56 35.1193 56 36.5C56 37.8807 54.8807 39 53.5 39ZM70.5 39C69.1193 39 68 37.8807 68 36.5C68 35.1193 69.1193 34 70.5 34C71.8807 34 73 35.1193 73 36.5C73 37.8807 71.8807 39 70.5 39ZM87.5 39C86.1193 39 85 37.8807 85 36.5C85 35.1193 86.1193 34 87.5 34C88.8807 34 90 35.1193 90 36.5C90 37.8807 88.8807 39 87.5 39ZM104.5 39C103.119 39 102 37.8807 102 36.5C102 35.1193 103.119 34 104.5 34C105.881 34 107 35.1193 107 36.5C107 37.8807 105.881 39 104.5 39ZM121.5 39C120.119 39 119 37.8807 119 36.5C119 35.1193 120.119 34 121.5 34C122.881 34 124 35.1193 124 36.5C124 37.8807 122.881 39 121.5 39ZM138.5 39C137.119 39 136 37.8807 136 36.5C136 35.1193 137.119 34 138.5 34C139.881 34 141 35.1193 141 36.5C141 37.8807 139.881 39 138.5 39ZM155.5 39C154.119 39 153 37.8807 153 36.5C153 35.1193 154.119 34 155.5 34C156.881 34 158 35.1193 158 36.5C158 37.8807 156.881 39 155.5 39ZM2.5 56C1.11929 56 0 54.8807 0 53.5C0 52.1193 1.11929 51 2.5 51C3.88071 51 5 52.1193 5 53.5C5 54.8807 3.88071 56 2.5 56ZM19.5 56C18.1193 56 17 54.8807 17 53.5C17 52.1193 18.1193 51 19.5 51C20.8807 51 22 52.1193 22 53.5C22 54.8807 20.8807 56 19.5 56ZM36.5 56C35.1193 56 34 54.8807 34 53.5C34 52.1193 35.1193 51 36.5 51C37.8807 51 39 52.1193 39 53.5C39 54.8807 37.8807 56 36.5 56ZM53.5 56C52.1193 56 51 54.8807 51 53.5C51 52.1193 52.1193 51 53.5 51C54.8807 51 56 52.1193 56 53.5C56 54.8807 54.8807 56 53.5 56ZM70.5 56C69.1193 56 68 54.8807 68 53.5C68 52.1193 69.1193 51 70.5 51C71.8807 51 73 52.1193 73 53.5C73 54.8807 71.8807 56 70.5 56ZM87.5 56C86.1193 56 85 54.8807 85 53.5C85 52.1193 86.1193 51 87.5 51C88.8807 51 90 52.1193 90 53.5C90 54.8807 88.8807 56 87.5 56ZM104.5 56C103.119 56 102 54.8807 102 53.5C102 52.1193 103.119 51 104.5 51C105.881 51 107 52.1193 107 53.5C107 54.8807 105.881 56 104.5 56ZM121.5 56C120.119 56 119 54.8807 119 53.5C119 52.1193 120.119 51 121.5 51C122.881 51 124 52.1193 124 53.5C124 54.8807 122.881 56 121.5 56ZM138.5 56C137.119 56 136 54.8807 136 53.5C136 52.1193 137.119 51 138.5 51C139.881 51 141 52.1193 141 53.5C141 54.8807 139.881 56 138.5 56ZM155.5 56C154.119 56 153 54.8807 153 53.5C153 52.1193 154.119 51 155.5 51C156.881 51 158 52.1193 158 53.5C158 54.8807 156.881 56 155.5 56ZM2.5 73C1.11929 73 0 71.8807 0 70.5C0 69.1193 1.11929 68 2.5 68C3.88071 68 5 69.1193 5 70.5C5 71.8807 3.88071 73 2.5 73ZM19.5 73C18.1193 73 17 71.8807 17 70.5C17 69.1193 18.1193 68 19.5 68C20.8807 68 22 69.1193 22 70.5C22 71.8807 20.8807 73 19.5 73ZM36.5 73C35.1193 73 34 71.8807 34 70.5C34 69.1193 35.1193 68 36.5 68C37.8807 68 39 69.1193 39 70.5C39 71.8807 37.8807 73 36.5 73ZM53.5 73C52.1193 73 51 71.8807 51 70.5C51 69.1193 52.1193 68 53.5 68C54.8807 68 56 69.1193 56 70.5C56 71.8807 54.8807 73 53.5 73ZM70.5 73C69.1193 73 68 71.8807 68 70.5C68 69.1193 69.1193 68 70.5 68C71.8807 68 73 69.1193 73 70.5C73 71.8807 71.8807 73 70.5 73ZM87.5 73C86.1193 73 85 71.8807 85 70.5C85 69.1193 86.1193 68 87.5 68C88.8807 68 90 69.1193 90 70.5C90 71.8807 88.8807 73 87.5 73ZM104.5 73C103.119 73 102 71.8807 102 70.5C102 69.1193 103.119 68 104.5 68C105.881 68 107 69.1193 107 70.5C107 71.8807 105.881 73 104.5 73ZM121.5 73C120.119 73 119 71.8807 119 70.5C119 69.1193 120.119 68 121.5 68C122.881 68 124 69.1193 124 70.5C124 71.8807 122.881 73 121.5 73ZM138.5 73C137.119 73 136 71.8807 136 70.5C136 69.1193 137.119 68 138.5 68C139.881 68 141 69.1193 141 70.5C141 71.8807 139.881 73 138.5 73ZM155.5 73C154.119 73 153 71.8807 153 70.5C153 69.1193 154.119 68 155.5 68C156.881 68 158 69.1193 158 70.5C158 71.8807 156.881 73 155.5 73ZM2.5 90C1.11929 90 0 88.8807 0 87.5C0 86.1193 1.11929 85 2.5 85C3.88071 85 5 86.1193 5 87.5C5 88.8807 3.88071 90 2.5 90ZM19.5 90C18.1193 90 17 88.8807 17 87.5C17 86.1193 18.1193 85 19.5 85C20.8807 85 22 86.1193 22 87.5C22 88.8807 20.8807 90 19.5 90ZM36.5 90C35.1193 90 34 88.8807 34 87.5C34 86.1193 35.1193 85 36.5 85C37.8807 85 39 86.1193 39 87.5C39 88.8807 37.8807 90 36.5 90ZM53.5 90C52.1193 90 51 88.8807 51 87.5C51 86.1193 52.1193 85 53.5 85C54.8807 85 56 86.1193 56 87.5C56 88.8807 54.8807 90 53.5 90ZM70.5 90C69.1193 90 68 88.8807 68 87.5C68 86.1193 69.1193 85 70.5 85C71.8807 85 73 86.1193 73 87.5C73 88.8807 71.8807 90 70.5 90ZM87.5 90C86.1193 90 85 88.8807 85 87.5C85 86.1193 86.1193 85 87.5 85C88.8807 85 90 86.1193 90 87.5C90 88.8807 88.8807 90 87.5 90ZM104.5 90C103.119 90 102 88.8807 102 87.5C102 86.1193 103.119 85 104.5 85C105.881 85 107 86.1193 107 87.5C107 88.8807 105.881 90 104.5 90ZM121.5 90C120.119 90 119 88.8807 119 87.5C119 86.1193 120.119 85 121.5 85C122.881 85 124 86.1193 124 87.5C124 88.8807 122.881 90 121.5 90ZM138.5 90C137.119 90 136 88.8807 136 87.5C136 86.1193 137.119 85 138.5 85C139.881 85 141 86.1193 141 87.5C141 88.8807 139.881 90 138.5 90ZM155.5 90C154.119 90 153 88.8807 153 87.5C153 86.1193 154.119 85 155.5 85C156.881 85 158 86.1193 158 87.5C158 88.8807 156.881 90 155.5 90ZM2.5 107C1.11929 107 0 105.881 0 104.5C0 103.119 1.11929 102 2.5 102C3.88071 102 5 103.119 5 104.5C5 105.881 3.88071 107 2.5 107ZM19.5 107C18.1193 107 17 105.881 17 104.5C17 103.119 18.1193 102 19.5 102C20.8807 102 22 103.119 22 104.5C22 105.881 20.8807 107 19.5 107ZM36.5 107C35.1193 107 34 105.881 34 104.5C34 103.119 35.1193 102 36.5 102C37.8807 102 39 103.119 39 104.5C39 105.881 37.8807 107 36.5 107ZM53.5 107C52.1193 107 51 105.881 51 104.5C51 103.119 52.1193 102 53.5 102C54.8807 102 56 103.119 56 104.5C56 105.881 54.8807 107 53.5 107ZM70.5 107C69.1193 107 68 105.881 68 104.5C68 103.119 69.1193 102 70.5 102C71.8807 102 73 103.119 73 104.5C73 105.881 71.8807 107 70.5 107ZM87.5 107C86.1193 107 85 105.881 85 104.5C85 103.119 86.1193 102 87.5 102C88.8807 102 90 103.119 90 104.5C90 105.881 88.8807 107 87.5 107ZM104.5 107C103.119 107 102 105.881 102 104.5C102 103.119 103.119 102 104.5 102C105.881 102 107 103.119 107 104.5C107 105.881 105.881 107 104.5 107ZM121.5 107C120.119 107 119 105.881 119 104.5C119 103.119 120.119 102 121.5 102C122.881 102 124 103.119 124 104.5C124 105.881 122.881 107 121.5 107ZM138.5 107C137.119 107 136 105.881 136 104.5C136 103.119 137.119 102 138.5 102C139.881 102 141 103.119 141 104.5C141 105.881 139.881 107 138.5 107ZM155.5 107C154.119 107 153 105.881 153 104.5C153 103.119 154.119 102 155.5 102C156.881 102 158 103.119 158 104.5C158 105.881 156.881 107 155.5 107ZM2.5 124C1.11929 124 0 122.881 0 121.5C0 120.119 1.11929 119 2.5 119C3.88071 119 5 120.119 5 121.5C5 122.881 3.88071 124 2.5 124ZM19.5 124C18.1193 124 17 122.881 17 121.5C17 120.119 18.1193 119 19.5 119C20.8807 119 22 120.119 22 121.5C22 122.881 20.8807 124 19.5 124ZM36.5 124C35.1193 124 34 122.881 34 121.5C34 120.119 35.1193 119 36.5 119C37.8807 119 39 120.119 39 121.5C39 122.881 37.8807 124 36.5 124ZM53.5 124C52.1193 124 51 122.881 51 121.5C51 120.119 52.1193 119 53.5 119C54.8807 119 56 120.119 56 121.5C56 122.881 54.8807 124 53.5 124ZM70.5 124C69.1193 124 68 122.881 68 121.5C68 120.119 69.1193 119 70.5 119C71.8807 119 73 120.119 73 121.5C73 122.881 71.8807 124 70.5 124ZM87.5 124C86.1193 124 85 122.881 85 121.5C85 120.119 86.1193 119 87.5 119C88.8807 119 90 120.119 90 121.5C90 122.881 88.8807 124 87.5 124ZM104.5 124C103.119 124 102 122.881 102 121.5C102 120.119 103.119 119 104.5 119C105.881 119 107 120.119 107 121.5C107 122.881 105.881 124 104.5 124ZM121.5 124C120.119 124 119 122.881 119 121.5C119 120.119 120.119 119 121.5 119C122.881 119 124 120.119 124 121.5C124 122.881 122.881 124 121.5 124ZM138.5 124C137.119 124 136 122.881 136 121.5C136 120.119 137.119 119 138.5 119C139.881 119 141 120.119 141 121.5C141 122.881 139.881 124 138.5 124ZM155.5 124C154.119 124 153 122.881 153 121.5C153 120.119 154.119 119 155.5 119C156.881 119 158 120.119 158 121.5C158 122.881 156.881 124 155.5 124ZM2.5 141C1.11929 141 0 139.881 0 138.5C0 137.119 1.11929 136 2.5 136C3.88071 136 5 137.119 5 138.5C5 139.881 3.88071 141 2.5 141ZM19.5 141C18.1193 141 17 139.881 17 138.5C17 137.119 18.1193 136 19.5 136C20.8807 136 22 137.119 22 138.5C22 139.881 20.8807 141 19.5 141ZM36.5 141C35.1193 141 34 139.881 34 138.5C34 137.119 35.1193 136 36.5 136C37.8807 136 39 137.119 39 138.5C39 139.881 37.8807 141 36.5 141ZM53.5 141C52.1193 141 51 139.881 51 138.5C51 137.119 52.1193 136 53.5 136C54.8807 136 56 137.119 56 138.5C56 139.881 54.8807 141 53.5 141ZM70.5 141C69.1193 141 68 139.881 68 138.5C68 137.119 69.1193 136 70.5 136C71.8807 136 73 137.119 73 138.5C73 139.881 71.8807 141 70.5 141ZM87.5 141C86.1193 141 85 139.881 85 138.5C85 137.119 86.1193 136 87.5 136C88.8807 136 90 137.119 90 138.5C90 139.881 88.8807 141 87.5 141ZM104.5 141C103.119 141 102 139.881 102 138.5C102 137.119 103.119 136 104.5 136C105.881 136 107 137.119 107 138.5C107 139.881 105.881 141 104.5 141ZM121.5 141C120.119 141 119 139.881 119 138.5C119 137.119 120.119 136 121.5 136C122.881 136 124 137.119 124 138.5C124 139.881 122.881 141 121.5 141ZM138.5 141C137.119 141 136 139.881 136 138.5C136 137.119 137.119 136 138.5 136C139.881 136 141 137.119 141 138.5C141 139.881 139.881 141 138.5 141ZM155.5 141C154.119 141 153 139.881 153 138.5C153 137.119 154.119 136 155.5 136C156.881 136 158 137.119 158 138.5C158 139.881 156.881 141 155.5 141ZM2.5 158C1.11929 158 0 156.881 0 155.5C0 154.119 1.11929 153 2.5 153C3.88071 153 5 154.119 5 155.5C5 156.881 3.88071 158 2.5 158ZM19.5 158C18.1193 158 17 156.881 17 155.5C17 154.119 18.1193 153 19.5 153C20.8807 153 22 154.119 22 155.5C22 156.881 20.8807 158 19.5 158ZM36.5 158C35.1193 158 34 156.881 34 155.5C34 154.119 35.1193 153 36.5 153C37.8807 153 39 154.119 39 155.5C39 156.881 37.8807 158 36.5 158ZM53.5 158C52.1193 158 51 156.881 51 155.5C51 154.119 52.1193 153 53.5 153C54.8807 153 56 154.119 56 155.5C56 156.881 54.8807 158 53.5 158ZM70.5 158C69.1193 158 68 156.881 68 155.5C68 154.119 69.1193 153 70.5 153C71.8807 153 73 154.119 73 155.5C73 156.881 71.8807 158 70.5 158ZM87.5 158C86.1193 158 85 156.881 85 155.5C85 154.119 86.1193 153 87.5 153C88.8807 153 90 154.119 90 155.5C90 156.881 88.8807 158 87.5 158ZM104.5 158C103.119 158 102 156.881 102 155.5C102 154.119 103.119 153 104.5 153C105.881 153 107 154.119 107 155.5C107 156.881 105.881 158 104.5 158ZM121.5 158C120.119 158 119 156.881 119 155.5C119 154.119 120.119 153 121.5 153C122.881 153 124 154.119 124 155.5C124 156.881 122.881 158 121.5 158ZM138.5 158C137.119 158 136 156.881 136 155.5C136 154.119 137.119 153 138.5 153C139.881 153 141 154.119 141 155.5C141 156.881 139.881 158 138.5 158ZM155.5 158C154.119 158 153 156.881 153 155.5C153 154.119 154.119 153 155.5 153C156.881 153 158 154.119 158 155.5C158 156.881 156.881 158 155.5 158Z" fill="#479FC8"/>
</svg>
