<svg width="104" height="28" viewBox="0 0 104 28" fill="none" xmlns="http://www.w3.org/2000/svg">
<mask id="mask0_2534_401" style="mask-type:luminance" maskUnits="userSpaceOnUse" x="86" y="8" width="16" height="20">
<path fill-rule="evenodd" clip-rule="evenodd" d="M86.6792 10.0605C86.6792 9.55862 93.031 8.47548 97.2909 8.47548C99.1382 8.47548 100.592 8.67919 100.964 9.22219C102.882 11.7433 89.3789 27.56 88.2538 27.0803C87.3515 26.8403 95.4529 16.7729 94.1024 12.6967C93.4283 10.5412 86.6792 10.781 86.6792 10.0605Z" fill="white"/>
</mask>
<g mask="url(#mask0_2534_401)">
<path d="M82.9736 30.7793H104.856V4.78712H82.9736V30.7793Z" fill="#EE312A"/>
</g>
<mask id="mask1_2534_401" style="mask-type:luminance" maskUnits="userSpaceOnUse" x="98" y="1" width="7" height="6">
<path fill-rule="evenodd" clip-rule="evenodd" d="M98.1519 4.03347C98.1519 2.42472 99.4618 1.12282 101.076 1.12282C102.692 1.12282 104 2.42472 104 4.03347C104 5.64304 102.692 6.94495 101.076 6.94495C99.4618 6.94495 98.1519 5.64304 98.1519 4.03347Z" fill="white"/>
</mask>
<g mask="url(#mask1_2534_401)">
<path d="M94.4463 10.3916H107.706V-2.32367H94.4463V10.3916Z" fill="#EE312A"/>
</g>
<path fill-rule="evenodd" clip-rule="evenodd" d="M8.87985 20.1811L10.0607 21.3571L11.9541 19.995L10.5263 18.5738C11.1455 17.6602 11.5071 16.5594 11.5071 15.3749C11.5071 12.2118 8.9311 9.64807 5.75365 9.64807C2.57605 9.64807 0 12.2118 0 15.3749C0 18.5375 2.57605 21.1012 5.75365 21.1012C6.90651 21.1012 7.97956 20.7626 8.87985 20.1811ZM2.39595 15.3749C2.39595 13.5289 3.89952 12.0326 5.75395 12.0326C7.60837 12.0326 9.11195 13.5289 9.11195 15.3749C9.11195 17.2207 7.60837 18.717 5.75395 18.717C3.89952 18.717 2.39595 17.2207 2.39595 15.3749ZM83.1039 14.3854L83.4484 12.5565C83.4484 12.5565 80.7876 11.7526 78.6248 13.2422V20.5584H80.9218L80.9215 14.6141C81.8403 13.928 83.1039 14.3854 83.1039 14.3854ZM26.3681 14.8749C26.1781 15.3914 26.0831 15.9412 26.0831 16.5244C26.0831 17.1279 26.1628 17.688 26.3221 18.2045C26.4814 18.7212 26.7327 19.1687 27.0776 19.5472C27.4217 19.9256 27.8612 20.2251 28.3957 20.4449C28.93 20.6647 29.5671 20.7746 30.307 20.7746C30.7899 20.7746 31.232 20.7338 31.6328 20.6518C32.0337 20.5699 32.3677 20.4731 32.6351 20.3603L32.3114 18.4885C32.044 18.6011 31.751 18.6826 31.4326 18.734C31.114 18.7853 30.8158 18.8107 30.5384 18.8107C29.7572 18.8107 29.21 18.6112 28.8966 18.2121C28.5832 17.8134 28.4265 17.2507 28.4265 16.5244C28.4265 15.839 28.5935 15.2868 28.9274 14.8672C29.2613 14.4476 29.7674 14.238 30.4459 14.238C30.7643 14.238 31.0522 14.2686 31.3094 14.3303C31.566 14.3913 31.8027 14.463 32.0186 14.545L32.4963 12.7191C32.1574 12.5756 31.8076 12.4657 31.4479 12.389C31.0883 12.3123 30.6924 12.2738 30.261 12.2738C29.6032 12.2738 29.0174 12.3867 28.5036 12.6115C27.9893 12.8366 27.5527 13.1408 27.1929 13.5247C26.8333 13.9084 26.5585 14.3584 26.3681 14.8749ZM53.9805 13.9025C52.4874 13.9025 52.3724 15.5028 52.3724 15.5028H55.5882C55.5882 15.5028 55.4735 13.9025 53.9805 13.9025ZM52.3724 17.1034H57.5408C57.7706 15.7315 57.5408 12.3023 54.0952 12.3023C51.798 12.3023 50.1903 13.9026 50.1903 16.4176C50.1903 19.6181 52.2575 20.7613 54.5547 20.7613C56.1625 20.7613 57.311 20.3042 57.311 20.3042L57.0816 18.4752C57.0816 18.4752 55.9326 18.8184 54.7845 18.8184C52.4874 18.8184 52.3724 17.1034 52.3724 17.1034ZM73.2664 13.9025C71.7732 13.9025 71.6585 15.5028 71.6585 15.5028H74.8745C74.8745 15.5028 74.7595 13.9025 73.2664 13.9025ZM71.6588 17.1034H76.827C77.0568 15.7315 76.827 12.3023 73.3817 12.3023C71.0847 12.3023 69.4764 13.9026 69.4764 16.4176C69.4764 19.6181 71.5437 20.7613 73.841 20.7613C75.449 20.7613 76.5971 20.3042 76.5971 20.3042L76.3674 18.4752C76.3674 18.4752 75.2191 18.8184 74.0706 18.8184C71.7735 18.8184 71.6588 17.1034 71.6588 17.1034Z" fill="#00425F"/>
<path d="M24.3173 20.5593H22.0205V12.488H24.3173V20.5593Z" fill="#00425F"/>
<path d="M20.3956 12.4891L20.3995 19.8009C20.3995 19.8009 19.247 20.719 16.7202 20.719C14.4234 20.719 13.1602 19.5758 13.1602 17.0608V12.4888H15.4569V17.0608C15.4569 18.6615 16.261 18.7755 16.9498 18.7755C17.6393 18.7755 18.0991 18.4326 18.0991 18.4326L18.0984 12.4891H20.3956Z" fill="#00425F"/>
<path d="M36.5554 15.3856C36.7815 15.1415 37.0146 14.8874 37.2559 14.6231C37.4972 14.3588 37.731 14.0967 37.9568 13.8375C38.1826 13.5777 38.3958 13.3312 38.596 13.0974C38.7963 12.8637 38.9682 12.6599 39.1119 12.4869H41.8436C41.2983 13.1102 40.7668 13.7047 40.2476 14.2711C39.7286 14.8376 39.1609 15.4219 38.544 16.0243C38.8524 16.3008 39.1708 16.6315 39.5002 17.0156C39.8288 17.4001 40.1475 17.797 40.4556 18.2072C40.7645 18.617 41.0468 19.0269 41.3037 19.4368C41.5608 19.8468 41.7767 20.2206 41.9512 20.5586H39.31C39.1457 20.292 38.9582 19.9975 38.7484 19.6741C38.5381 19.3512 38.3148 19.028 38.0789 18.7052C37.8428 18.3824 37.5938 18.0721 37.3323 17.7746C37.0708 17.4776 36.8115 17.2262 36.5554 17.0208V20.5586H34.2583V10.471L36.5554 10.0676V15.3856Z" fill="#00425F"/>
<path d="M43.2842 10.4717L45.5812 10.0682V12.4468H47.8545V14.3496H45.5812V17.188C45.5812 17.669 45.6661 18.0527 45.8356 18.3387C46.0051 18.6253 46.3466 18.7684 46.861 18.7684C47.1076 18.7684 47.3619 18.7454 47.624 18.6994C47.886 18.6533 48.125 18.5897 48.3409 18.5075L48.6645 20.2878C48.3871 20.4004 48.0786 20.4974 47.7395 20.5794C47.4006 20.6609 46.9841 20.7017 46.4908 20.7017C45.8635 20.7017 45.3449 20.6175 44.934 20.4487C44.5226 20.2799 44.194 20.0446 43.9471 19.7429C43.7004 19.4414 43.5281 19.0755 43.4307 18.6457C43.3327 18.2161 43.2842 17.7404 43.2842 17.2188V10.4717Z" fill="#00425F"/>
<path d="M62.4622 20.7119C61.7937 20.7019 61.2519 20.63 60.8356 20.4974C60.4195 20.3644 60.0901 20.1775 59.8492 19.9369C59.6072 19.6969 59.4428 19.4051 59.3557 19.0624C59.2682 18.7198 59.2246 18.3333 59.2246 17.9037V10.4708L61.5217 10.0672V17.4433C61.5217 17.6484 61.537 17.8323 61.568 17.9962C61.5988 18.1597 61.6579 18.2979 61.7452 18.4102C61.8326 18.5231 61.9584 18.615 62.1231 18.6864C62.2873 18.7583 62.5086 18.8041 62.786 18.8243L62.4622 20.7119Z" fill="#00425F"/>
<path d="M67.6509 20.7119C66.9824 20.7019 66.4404 20.63 66.0242 20.4974C65.608 20.3644 65.2786 20.1775 65.0377 19.9369C64.796 19.6969 64.6313 19.4051 64.5441 19.0624C64.4568 18.7198 64.4131 18.3333 64.4131 17.9037V10.4708L66.7102 10.0672V17.4433C66.7102 17.6484 66.7258 17.8323 66.7565 17.9962C66.7874 18.1597 66.8464 18.2979 66.9337 18.4102C67.021 18.5231 67.147 18.615 67.3116 18.6864C67.476 18.7583 67.6971 18.8041 67.9745 18.8243L67.6509 20.7119Z" fill="#00425F"/>
</svg>
